<svg width="36" height="36" viewBox="0 0 36 36" fill="none" xmlns="http://www.w3.org/2000/svg">
<rect width="36" height="36" rx="18" fill="#F2F4F7"/>
<path d="M25.2275 11.9295C24.4775 12.297 23.7425 12.4463 22.9775 12.672C22.1368 11.7233 20.8903 11.6708 19.6925 12.1193C18.4948 12.5678 17.7103 13.6643 17.7275 14.922V15.672C15.2938 15.7343 13.1263 14.6258 11.7275 12.672C11.7275 12.672 8.59104 18.2468 14.7275 20.922C13.3235 21.8573 11.9233 22.488 10.2275 22.422C12.7085 23.7743 15.4123 24.2393 17.753 23.5598C20.438 22.7798 22.6445 20.7675 23.4913 17.7533C23.7439 16.8365 23.8693 15.8894 23.864 14.9385C23.8625 14.7518 24.9965 12.8595 25.2275 11.9288V11.9295Z" stroke="#282828" stroke-width="1.125" stroke-linecap="round" stroke-linejoin="round"/>
</svg>
